# xmcd CD database file
#
# Track frame offsets:
#	150
#	19702
#	43642
#	63192
#
# Disc length: 1161 seconds
#
# Revision: 1
# Processed by: cddbd v1.5PL3 Copyright (c) Steve Scherf et al.
# Submitted via: CDex 1.51
#
DISCID=28048704
DTITLE=re-kiss - HUMAN TOUCH
DYEAR=1998
DGENRE=JPop
TTITLE0=HUMAN TOUCH
TTITLE1=今すぐいくよ
TTITLE2=HUMAN TOUCH(Original Karaoke)
TTITLE3=今すぐいくよ(Original Karaoke)
EXTD=YEAR: 1998
EXTT0=
EXTT1=
EXTT2=
EXTT3=
PLAYORDER=
